<svg width="180" height="180" viewBox="0 0 180 180" fill="none" xmlns="http://www.w3.org/2000/svg">
  <rect width="180" height="180" rx="40" fill="#0f172a"/>
  <defs>
    <filter id="glow" x="-20%" y="-20%" width="140%" height="140%">
      <feGaussianBlur stdDeviation="4" result="blur"/>
      <feComposite in="SourceGraphic" in2="blur" operator="over"/>
    </filter>
    <linearGradient id="fg" x1="0%" y1="50%" x2="100%" y2="50%">
      <stop offset="0%" style="stop-color:#38bdf8;stop-opacity:0"/>
      <stop offset="50%" style="stop-color:#38bdf8;stop-opacity:0.5"/>
      <stop offset="100%" style="stop-color:#38bdf8;stop-opacity:1"/>
    </linearGradient>
  </defs>
  <g filter="url(#glow)">
    <!-- Top :: arrow -->
    <circle cx="34" cy="66" r="9" fill="#38bdf8" opacity="0.45"/>
    <circle cx="34" cy="90" r="9" fill="#38bdf8" opacity="0.45"/>
    <path d="M50 72H95L90 50C90 46 94 44 97 46L128 64C131 66 131 70 128 72L97 90C94 92 90 90 90 86L95 76H50V72Z" fill="url(#fg)"/>
    <!-- Bottom :: arrow -->
    <circle cx="44" cy="114" r="9" fill="#38bdf8" opacity="0.45"/>
    <circle cx="44" cy="138" r="9" fill="#38bdf8" opacity="0.45"/>
    <path d="M60 120H105L100 98C100 94 104 92 107 94L138 112C141 114 141 118 138 120L107 138C104 140 100 138 100 134L105 124H60V120Z" fill="url(#fg)"/>
    <!-- Bracket -->
    <path d="M152 32C160 32 165 38 165 50V130C165 142 160 148 152 148" stroke="rgba(248,250,252,0.55)" stroke-width="12" stroke-linecap="round"/>
  </g>
  <rect x="2" y="2" width="176" height="176" rx="38" stroke="#38bdf8" stroke-width="1" opacity="0.1"/>
</svg>
